<svg xmlns="http://www.w3.org/2000/svg" viewBox="0 0 64 64">
  <rect width="64" height="64" rx="14" fill="#92400e"/>
  <path fill="#ffffff" d="M18 26h24v14a10 10 0 0 1-10 10h-4a10 10 0 0 1-10-10V26z"/>
  <path fill="#92400e" d="M20 28h20v12a8 8 0 0 1-8 8h-4a8 8 0 0 1-8-8V28z"/>
  <path fill="none" stroke="#ffffff" stroke-width="3" stroke-linecap="round"
        d="M42 30h4a5 5 0 0 1 0 10h-4"/>
  <path fill="none" stroke="#ffffff" stroke-width="3" stroke-linecap="round"
        d="M24 16c0 2-2 2-2 4s2 2 2 4M32 16c0 2-2 2-2 4s2 2 2 4"/>
</svg>
